<svg xmlns="http://www.w3.org/2000/svg" width="215" height="78" viewBox="0 0 215 78">
    <g fill="none" fill-rule="evenodd">
        <g>
            <g>
                <g>
                    <path fill="#007850" d="M73.082 1.284l-42.996 35.13.055 18.874L58.52 32.1c9.247-7.554 14.595-18.874 14.56-30.815z" transform="translate(-75 -333) translate(75 333) translate(140.578)"/>
                    <path fill="#005E3E" d="M73.234 53.234L45.76 42.525l-15.62 12.763 25.563 9.965c8.446 3.292 17.556-2.953 17.53-12.019" transform="translate(-75 -333) translate(75 333) translate(140.578)"/>
                    <path fill="#004D7E" d="M41.416 6.022c6.505-1.383 12.971-1.036 18.934.712l.134-.109C52.067.963 41.46-1.42 30.752.855 9.784 5.312-3.6 25.923.856 46.89c3.036 14.283 13.57 25.04 26.604 29.045-7.885-5.435-13.792-13.771-15.94-23.878C7.063 31.09 20.447 10.48 41.416 6.022" transform="translate(-75 -333) translate(75 333) translate(140.578)"/>
                    <path fill="#0075BE" d="M55.704 65.253l-5.76-2.245c-1.756.807-3.615 1.451-5.583 1.87-3.943.838-7.862.724-11.55-.138-9.75-2.279-17.829-9.956-20.044-20.38-3.054-14.368 6.15-28.54 20.517-31.595 6.008-1.277 11.97-.387 17.11 2.103l9.956-8.134c-5.963-1.748-12.429-2.095-18.934-.712C20.447 10.48 7.063 31.09 11.52 52.058c2.148 10.107 8.055 18.443 15.94 23.878 6.1 1.874 12.747 2.273 19.433.852 6.124-1.302 11.593-3.992 16.165-7.658 2.987-2.395 5.596-5.204 7.743-8.33-3.268 4.5-9.334 6.7-15.097 4.453" transform="translate(-75 -333) translate(75 333) translate(140.578)"/>
                    <path fill="#004D7E" d="M6.143 70.995c.158 0 .267-.03.326-.094.06-.062.09-.144.09-.246 0-.232-.139-.35-.416-.35h-.51v.69h.51zm-1.35-1.397h1.379c.227 0 .417.033.572.099.154.066.281.148.382.246.1.097.174.206.217.326.045.12.066.23.066.33 0 .183-.048.359-.146.53-.098.169-.238.301-.42.396l.784 1.35h-.945l-.69-1.209h-.359v1.21h-.84v-3.278zm1.266 4.185c.346 0 .667-.065.963-.194.296-.13.553-.305.77-.53.218-.223.387-.487.51-.793.123-.305.184-.638.184-.996 0-.353-.06-.682-.184-.987-.123-.306-.292-.572-.51-.798-.217-.227-.474-.405-.77-.534-.296-.13-.614-.195-.954-.195-.346 0-.667.065-.964.195-.295.129-.552.307-.77.534-.217.226-.388.492-.514.798-.126.305-.19.634-.19.987 0 .358.062.69.185.996.123.306.293.57.51.794.217.224.474.4.77.529.296.129.617.194.964.194zm0 .784c-.46 0-.889-.085-1.285-.255-.397-.17-.742-.405-1.035-.704-.292-.3-.524-.649-.694-1.049-.17-.4-.255-.83-.255-1.29 0-.459.085-.889.255-1.29.17-.399.402-.747.694-1.043.293-.296.64-.53 1.04-.703.4-.174.829-.26 1.289-.26.46 0 .888.086 1.285.26.396.173.741.407 1.034.703.293.296.525.644.695 1.044.17.4.255.83.255 1.29 0 .46-.085.89-.255 1.29-.17.4-.403.749-.7 1.048-.296.299-.642.533-1.039.704-.396.17-.825.255-1.284.255z" transform="translate(-75 -333) translate(75 333) translate(140.578)"/>
                </g>
                <path fill="#FFF" d="M20.899 28.121c1.041 0 1.921-.368 2.64-1.104.7-.737 1.05-1.617 1.05-2.64 0-1.06-.35-1.95-1.05-2.668-.719-.736-1.599-1.105-2.64-1.105-1.006 0-1.868.369-2.587 1.105-.7.737-1.05 1.626-1.05 2.667 0 1.042.35 1.922 1.05 2.64.7.737 1.563 1.105 2.587 1.105" transform="translate(-75 -333) translate(75 333)"/>
                <path fill="#FFF" d="M27.349 28.121c1.005 0 1.868-.368 2.586-1.104.7-.737 1.05-1.617 1.05-2.64 0-1.06-.35-1.95-1.05-2.668-.7-.736-1.562-1.105-2.586-1.105-1.006 0-1.868.369-2.586 1.105-.701.737-1.051 1.626-1.051 2.667 0 1.042.35 1.922 1.05 2.64.701.737 1.563 1.105 2.587 1.105M39.03 62.768c-1.006 0-1.868.367-2.586 1.104-.7.736-1.05 1.616-1.05 2.64 0 1.06.35 1.949 1.05 2.667.7.719 1.562 1.079 2.586 1.079 1.041 0 1.922-.369 2.64-1.105.701-.72 1.051-1.6 1.051-2.64 0-1.043-.35-1.932-1.05-2.668-.72-.718-1.6-1.077-2.641-1.077" transform="translate(-75 -333) translate(75 333)"/>
                <path fill="#FFF" d="M45.48 62.768c-1.006 0-1.868.367-2.586 1.104-.7.736-1.05 1.616-1.05 2.64 0 1.06.35 1.949 1.05 2.667.7.719 1.563 1.079 2.586 1.079 1.006 0 1.868-.369 2.587-1.105.7-.737 1.05-1.617 1.05-2.64 0-1.043-.35-1.932-1.05-2.668-.7-.718-1.563-1.077-2.587-1.077" transform="translate(-75 -333) translate(75 333)"/>
                <path fill="#FFF" d="M41.894 58.241h35.939V32.297h-7.274v20.206H56.172V32.297h-7.274v20.206H36.99V32.297h-7.274v20.206h-11.45V32.297h-7.274V58.86c0 2.838-.53 4.867-1.59 6.089-.934 1.077-2.398 1.616-4.391 1.616-1.455 0-2.946-.215-4.472-.647L0 71.712c1.473.359 3.018.539 4.634.539 9.088 0 13.632-4.598 13.632-13.794v-.216h23.628zM63.277 62.714c-1.042 0-1.94.367-2.694 1.104-.736.754-1.104 1.652-1.104 2.694 0 1.078.368 1.984 1.104 2.721.754.737 1.652 1.105 2.694 1.105 1.06 0 1.957-.378 2.695-1.132.753-.736 1.131-1.635 1.131-2.694 0-1.06-.378-1.958-1.131-2.694-.738-.737-1.635-1.104-2.695-1.104M123.283 17.91l-21.876 13.686v5.335c8.693 2.03 13.201 7.22 13.524 15.572H93.863V19.338H86.59v38.903h35.455v-3.69c0-10.543-4.077-17.647-12.231-21.311l13.47-8.11v-7.22z" transform="translate(-75 -333) translate(75 333)"/>
            </g>
        </g>
    </g>
</svg>
