<svg xmlns="http://www.w3.org/2000/svg" width="115" height="42" viewBox="0 0 115 42">
    <g fill="none" fill-rule="evenodd">
        <g>
            <g>
                <path fill="#007850" d="M114.817.69L91.712 19.57l.03 10.142 15.251-12.461c4.969-4.06 7.843-10.143 7.824-16.56z" transform="translate(-122 -46) translate(122 46)"/>
                <path fill="#005E3E" d="M114.899 28.607l-14.763-5.755-8.394 6.859 13.737 5.355c4.539 1.77 9.434-1.587 9.42-6.459" transform="translate(-122 -46) translate(122 46)"/>
                <path fill="#004D7E" d="M97.8 3.236c3.497-.743 6.971-.557 10.176.383l.072-.059C103.524.518 97.824-.764 92.07.46 80.802 2.853 73.61 13.93 76.005 25.197c1.631 7.676 7.292 13.457 14.296 15.609-4.237-2.921-7.412-7.4-8.566-12.832C79.34 16.707 86.533 5.631 97.801 3.236" transform="translate(-122 -46) translate(122 46)"/>
                <path fill="#0075BE" d="M105.479 35.066l-3.095-1.207c-.944.434-1.943.78-3 1.005-2.12.45-4.226.39-6.208-.074-5.24-1.224-9.58-5.35-10.771-10.952-1.641-7.72 3.305-15.337 11.026-16.978 3.228-.686 6.432-.208 9.195 1.13l5.35-4.371c-3.205-.94-6.68-1.126-10.175-.383-11.268 2.395-18.461 13.471-16.066 24.74 1.154 5.43 4.329 9.91 8.566 12.83 3.278 1.008 6.85 1.222 10.443.458 3.291-.7 6.23-2.144 8.687-4.115 1.605-1.287 3.007-2.796 4.16-4.476-1.755 2.419-5.015 3.6-8.112 2.393" transform="translate(-122 -46) translate(122 46)"/>
                <path fill="#004D7E" d="M78.846 38.152c.084 0 .143-.017.175-.05.032-.035.048-.078.048-.133 0-.125-.074-.188-.223-.188h-.274v.37h.274zm-.726-.751h.741c.122 0 .224.017.307.053.083.035.152.08.206.132.054.053.093.11.117.175.023.064.035.124.035.178 0 .098-.026.193-.078.284-.053.091-.128.163-.226.213l.421.726h-.508l-.37-.65h-.193v.65h-.452v-1.761zm.68 2.248c.186 0 .36-.034.518-.104.16-.069.297-.164.414-.284.117-.12.208-.262.274-.426.066-.165.099-.343.099-.536 0-.19-.033-.366-.099-.53-.066-.165-.157-.308-.274-.43-.117-.121-.255-.217-.414-.286-.159-.07-.33-.104-.513-.104-.186 0-.358.034-.517.104-.16.07-.297.165-.414.287-.117.121-.21.264-.277.429-.068.164-.101.34-.101.53 0 .193.032.371.099.536.066.164.157.306.274.426.116.12.254.215.413.284.16.07.332.104.518.104zm0 .422c-.247 0-.477-.046-.69-.137-.213-.092-.399-.218-.556-.378-.157-.161-.282-.349-.373-.564-.092-.215-.137-.446-.137-.693 0-.247.045-.478.137-.693.091-.215.216-.402.373-.56.157-.16.343-.286.558-.379.215-.093.446-.14.693-.14.247 0 .478.047.69.14.214.093.4.22.557.378.157.16.282.346.373.561.091.215.137.446.137.693 0 .247-.046.478-.137.693-.091.215-.217.403-.376.564-.16.16-.345.286-.558.378-.213.091-.444.137-.69.137z" transform="translate(-122 -46) translate(122 46)"/>
                <path fill="#111A2C" d="M11.23 15.112c.56 0 1.033-.198 1.42-.594.376-.396.564-.869.564-1.419 0-.569-.188-1.047-.565-1.433-.386-.395-.859-.594-1.418-.594-.541 0-1.004.199-1.39.594-.377.396-.565.874-.565 1.433 0 .56.188 1.033.565 1.42.376.395.84.593 1.39.593" transform="translate(-122 -46) translate(122 46)"/>
                <path fill="#111A2C" d="M14.697 15.112c.54 0 1.004-.198 1.39-.594.376-.396.564-.869.564-1.419 0-.569-.188-1.047-.564-1.433-.377-.395-.84-.594-1.39-.594-.54 0-1.004.199-1.39.594-.377.396-.565.874-.565 1.433 0 .56.188 1.033.565 1.42.377.395.84.593 1.39.593M20.974 33.73c-.54 0-1.004.198-1.39.594-.376.395-.564.868-.564 1.419 0 .569.188 1.047.564 1.433.377.386.84.58 1.39.58.56 0 1.033-.199 1.419-.594.376-.387.565-.86.565-1.42 0-.56-.189-1.037-.565-1.433-.386-.386-.86-.579-1.419-.579" transform="translate(-122 -46) translate(122 46)"/>
                <path fill="#111A2C" d="M24.44 33.73c-.54 0-1.004.198-1.39.594-.376.395-.564.868-.564 1.419 0 .569.188 1.047.565 1.433.376.386.84.58 1.39.58.54 0 1.003-.199 1.39-.594.376-.397.564-.87.564-1.42 0-.56-.188-1.037-.565-1.433-.376-.386-.84-.579-1.39-.579" transform="translate(-122 -46) translate(122 46)"/>
                <path fill="#111A2C" d="M22.513 31.298h19.313V17.356h-3.909v10.858h-7.731V17.356h-3.909v10.858H19.878V17.356h-3.909v10.858H9.816V17.356h-3.91V31.63c0 1.525-.284 2.615-.853 3.272-.502.579-1.289.868-2.36.868-.782 0-1.583-.115-2.404-.347L0 38.537c.791.193 1.622.29 2.49.29 4.884 0 7.326-2.472 7.326-7.413v-.116h12.696zM34.004 33.701c-.56 0-1.042.198-1.448.594-.395.405-.593.888-.593 1.448 0 .579.198 1.066.593 1.462.406.396.888.593 1.448.593.57 0 1.052-.203 1.448-.608.405-.396.608-.878.608-1.447 0-.57-.203-1.053-.608-1.448-.396-.396-.879-.594-1.448-.594M66.25 9.625l-11.756 7.354v2.867c4.672 1.09 7.095 3.88 7.268 8.368H50.44V10.392h-3.908v20.906h19.053v-1.984c0-5.665-2.192-9.483-6.574-11.451l7.24-4.358v-3.88z" transform="translate(-122 -46) translate(122 46)"/>
            </g>
        </g>
    </g>
</svg>
