<svg width="31" height="32" viewBox="0 0 31 32" fill="none" xmlns="http://www.w3.org/2000/svg">
<path fill-rule="evenodd" clip-rule="evenodd" d="M30.1206 0.529297L12.3998 15.0083L12.4225 22.7869L24.1196 13.2298C27.9304 10.116 30.135 5.45045 30.1206 0.529297Z" fill="#007850"/>
<path fill-rule="evenodd" clip-rule="evenodd" d="M30.1833 21.9402L18.8606 17.5264L12.4226 22.7866L22.9584 26.8938C26.4395 28.2507 30.1942 25.6764 30.1833 21.9402Z" fill="#005E3E"/>
<path fill-rule="evenodd" clip-rule="evenodd" d="M17.0696 2.48213C19.7508 1.91213 22.4158 2.05516 24.8735 2.77543L24.9286 2.73061C21.4593 0.396927 17.0874 -0.58553 12.6746 0.352263C4.03259 2.18931 -1.48403 10.6841 0.352853 19.3263C1.6041 25.2131 5.94559 29.6468 11.3176 31.2968C8.06771 29.0572 5.6331 25.6214 4.74787 21.4561C2.91082 12.814 8.42745 4.31902 17.0696 2.48213Z" fill="#004D7E"/>
<path fill-rule="evenodd" clip-rule="evenodd" d="M22.9585 26.8939L20.5846 25.9685C19.861 26.3012 19.0944 26.5667 18.2834 26.7389C16.6583 27.0845 15.043 27.0376 13.523 26.6823C9.50445 25.7432 6.1751 22.579 5.26181 18.2827C4.00314 12.361 7.79656 6.51963 13.7181 5.26096C16.1941 4.73466 18.6513 5.10133 20.7702 6.12797L24.8736 2.77523C22.4159 2.0548 19.7508 1.91177 17.0697 2.48193C8.42751 4.31865 2.91088 12.8138 4.74793 21.4558C5.63316 25.621 8.06777 29.0568 11.3176 31.2966C13.8321 32.069 16.5714 32.2335 19.3269 31.6478C21.8512 31.1114 24.1049 30.003 25.9894 28.4918C27.2206 27.5045 28.2958 26.3468 29.1807 25.0589C27.8338 26.9136 25.3336 27.8197 22.9585 26.8939Z" fill="#007DC6"/>
<path fill-rule="evenodd" clip-rule="evenodd" d="M2.53206 29.2604C2.59688 29.2604 2.64187 29.2475 2.66638 29.2217C2.69105 29.1958 2.7033 29.1621 2.7033 29.1203C2.7033 29.0244 2.64622 28.9763 2.53206 28.9763H2.3218V29.2604H2.53206ZM1.97528 28.6843H2.54383C2.63719 28.6843 2.71571 28.698 2.77941 28.7252C2.84277 28.7523 2.8955 28.7864 2.93694 28.8265C2.97854 28.8668 3.00853 28.9115 3.02659 28.9608C3.04481 29.0102 3.05384 29.0555 3.05384 29.0969C3.05384 29.1724 3.03369 29.2449 2.99354 29.3151C2.95323 29.3851 2.8955 29.4397 2.8202 29.4787L3.14349 30.0353H2.75409L2.46982 29.5369H2.3218V30.0353H1.97528V28.6843ZM2.49707 30.4091C2.63977 30.4091 2.77232 30.3827 2.89422 30.3293C3.01628 30.2761 3.12205 30.2037 3.21154 30.1113C3.30119 30.0191 3.37117 29.9101 3.4218 29.7841C3.47243 29.6584 3.49759 29.5213 3.49759 29.3735C3.49759 29.2282 3.47243 29.0924 3.4218 28.9666C3.37117 28.8405 3.30119 28.7311 3.21154 28.6377C3.12205 28.5442 3.01628 28.4708 2.89422 28.4176C2.77232 28.3644 2.64122 28.3376 2.50094 28.3376C2.35824 28.3376 2.22586 28.3644 2.1038 28.4176C1.9819 28.4708 1.87612 28.5442 1.78631 28.6377C1.69698 28.7311 1.6262 28.8405 1.57444 28.9666C1.52236 29.0924 1.4964 29.2282 1.4964 29.3735C1.4964 29.5213 1.52155 29.6584 1.57234 29.7841C1.62297 29.9101 1.69311 30.0191 1.7826 30.1113C1.87209 30.2037 1.97787 30.2761 2.09993 30.3293C2.22199 30.3827 2.35437 30.4091 2.49707 30.4091ZM2.49705 30.7323C2.30743 30.7323 2.13103 30.6973 1.96753 30.6273C1.80403 30.5571 1.66197 30.4602 1.5412 30.337C1.42059 30.2139 1.32513 30.07 1.25499 29.9049C1.18501 29.7401 1.15002 29.5631 1.15002 29.3735C1.15002 29.184 1.18501 29.0069 1.25499 28.842C1.32513 28.6772 1.42059 28.5339 1.5412 28.4118C1.66197 28.2897 1.80451 28.193 1.96946 28.1217C2.13426 28.0503 2.3113 28.0146 2.50092 28.0146C2.69038 28.0146 2.86711 28.0503 3.03045 28.1217C3.19395 28.193 3.336 28.2897 3.45678 28.4118C3.57755 28.5339 3.673 28.6772 3.74298 28.842C3.81312 29.0069 3.84811 29.184 3.84811 29.3735C3.84811 29.5631 3.81312 29.7401 3.74298 29.9049C3.673 30.07 3.5769 30.2139 3.45484 30.337C3.33278 30.4602 3.19008 30.5571 3.02658 30.6273C2.86308 30.6973 2.68651 30.7323 2.49705 30.7323Z" fill="#004D7E"/>
</svg>
