<?xml version="1.0" encoding="UTF-8"?>
<svg width="25px" height="33px" viewBox="0 0 25 33" version="1.1" xmlns="http://www.w3.org/2000/svg" xmlns:xlink="http://www.w3.org/1999/xlink">
    <!-- Generator: Sketch 48.2 (47327) - http://www.bohemiancoding.com/sketch -->
    <title>icons8-csv</title>
    <desc>Created with Sketch.</desc>
    <defs></defs>
    <g id="Newsfeed-[All]" stroke="none" stroke-width="1" fill="none" fill-rule="evenodd" transform="translate(-332.000000, -3328.000000)">
        <g id="iOS-Post-type-[All]" transform="translate(0.000000, 2716.000000)" fill-rule="nonzero">
            <g id="icons8-csv" transform="translate(332.000000, 612.000000)">
                <polygon id="Shape" fill="#4DB6AC" points="25 32.8125 0 32.8125 0 0 17.1875 0 25 7.8125"></polygon>
                <polygon id="Shape" fill="#E0F2F1" points="23.828125 8.59375 16.40625 8.59375 16.40625 1.171875"></polygon>
                <g id="Group" transform="translate(3.906250, 14.843750)" fill="#00695C">
                    <path d="M5.50390625,6.00390625 C5.46484375,6.890625 5.215625,7.56171875 4.75625,8.0171875 C4.296875,8.47265625 3.64921875,8.70078125 2.8125,8.70078125 C1.93359375,8.70078125 1.259375,8.41171875 0.79140625,7.83359375 C0.3234375,7.2546875 0.0890625,6.4296875 0.0890625,5.3578125 L0.0890625,4.04921875 C0.0890625,2.98125 0.33125,2.1578125 0.815625,1.57890625 C1.3,1.00078125 1.97265625,0.71171875 2.834375,0.71171875 C3.68125,0.71171875 4.325,0.9484375 4.76484375,1.421875 C5.2046875,1.8953125 5.4546875,2.57578125 5.51484375,3.46171875 L3.9390625,3.46171875 C3.925,2.91328125 3.840625,2.53515625 3.68515625,2.3265625 C3.53046875,2.11875 3.24609375,2.01484375 2.83359375,2.01484375 C2.41328125,2.01484375 2.11640625,2.16171875 1.94140625,2.4546875 C1.7671875,2.74921875 1.67421875,3.23203125 1.6640625,3.9046875 L1.6640625,5.3734375 C1.6640625,6.14609375 1.75,6.6765625 1.9234375,6.96484375 C2.096875,7.253125 2.39296875,7.39765625 2.8125,7.39765625 C3.22578125,7.39765625 3.51015625,7.296875 3.6671875,7.09609375 C3.82421875,6.89453125 3.9125,6.53046875 3.934375,6.00390625 L5.50390625,6.00390625 Z" id="Shape"></path>
                    <path d="M9.7546875,6.55390625 C9.7546875,6.2375 9.6734375,5.99765625 9.51171875,5.8359375 C9.34921875,5.6734375 9.0546875,5.50546875 8.62734375,5.33125 C7.84765625,5.0359375 7.28671875,4.68984375 6.9453125,4.2921875 C6.603125,3.8953125 6.4328125,3.4265625 6.4328125,2.88515625 C6.4328125,2.2296875 6.66484375,1.70390625 7.1296875,1.30703125 C7.59453125,0.909375 8.184375,0.7109375 8.9,0.7109375 C9.37734375,0.7109375 9.80234375,0.81171875 10.1765625,1.0125 C10.5507812,1.2140625 10.8382813,1.49765625 11.0390625,1.86484375 C11.2398438,2.23203125 11.340625,2.6484375 11.340625,3.11484375 L9.77578125,3.11484375 C9.77578125,2.7515625 9.69765625,2.475 9.54375,2.284375 C9.38828125,2.09453125 9.16484375,1.99921875 8.8734375,1.99921875 C8.59921875,1.99921875 8.38515625,2.08046875 8.2328125,2.2421875 C8.0796875,2.4046875 8.003125,2.62265625 8.003125,2.896875 C8.003125,3.11015625 8.08828125,3.30390625 8.259375,3.4765625 C8.43046875,3.64921875 8.7328125,3.82734375 9.1671875,4.01328125 C9.92578125,4.2875 10.4765625,4.6234375 10.8195312,5.02265625 C11.1632812,5.421875 11.3351562,5.92890625 11.3351562,6.54453125 C11.3351562,7.22109375 11.1203125,7.75 10.6890625,8.13046875 C10.2578125,8.5109375 9.671875,8.7015625 8.93203125,8.7015625 C8.4296875,8.7015625 7.97265625,8.5984375 7.559375,8.3921875 C7.14609375,8.1859375 6.8234375,7.88984375 6.58984375,7.50546875 C6.35625,7.12109375 6.23984375,6.6671875 6.23984375,6.14375 L7.815625,6.14375 C7.815625,6.5921875 7.903125,6.91796875 8.07734375,7.12109375 C8.2515625,7.32421875 8.53671875,7.42578125 8.93203125,7.42578125 C9.48046875,7.42421875 9.7546875,7.134375 9.7546875,6.55390625 Z" id="Shape"></path>
                    <polygon id="Shape" points="14.9085937 6.4578125 16.2171875 0.81796875 17.96875 0.81796875 15.7257812 8.59375 14.0914062 8.59375 11.8640625 0.81796875 13.6054687 0.81796875"></polygon>
                </g>
            </g>
        </g>
    </g>
</svg>