<?xml version="1.0" encoding="UTF-8"?>
<svg width="25px" height="28px" viewBox="0 0 25 28" version="1.1" xmlns="http://www.w3.org/2000/svg" xmlns:xlink="http://www.w3.org/1999/xlink">
	<!-- Generator: Sketch 48.2 (47327) - http://www.bohemiancoding.com/sketch -->
	<title>
		icons8-epub
	</title>
	<desc>
		Created with Sketch.
	</desc>
	<defs>
	</defs>
	<g id="Newsfeed-[All]" stroke="none" stroke-width="1" fill="none" fill-rule="evenodd" transform="translate(-264.000000, -3342.000000)">
		<g id="iOS-Post-type-[All]" transform="translate(0.000000, 2716.000000)" fill-rule="nonzero">
			<g id="icons8-epub" transform="translate(264.000000, 626.000000)">
				<path d="M22.2222222,27.7777778 L4.16666667,27.7777778 L4.16666667,0 L22.2222222,0 C23.75625,0 25,1.24375 25,2.77777778 L25,25 C25,26.5340278 23.75625,27.7777778 22.2222222,27.7777778" id="Shape" fill="#FF7043">
				</path>
				<path d="M2.77777778,0 L4.16666667,0 L4.16666667,27.7777778 L2.77777778,27.7777778 C1.24375,27.7777778 0,26.5340278 0,25 L0,2.77777778 C0,1.24375 1.24375,0 2.77777778,0" id="Shape" fill="#BF360C">
				</path>
				<path d="M8.43125,14.3375 L6.25694444,14.3375 L6.25694444,16.1701389 L8.82986111,16.1701389 L8.82986111,17.3284722 L4.86111111,17.3284722 L4.86111111,10.4166667 L8.82013889,10.4166667 L8.82013889,11.5798611 L6.25694444,11.5798611 L6.25694444,13.2131944 L8.43125,13.2131944 L8.43125,14.3375 Z M11.1180556,14.9305556 L11.1180556,17.3611111 L9.72222222,17.3611111 L9.72222222,10.4493056 L12.0770833,10.4493056 C12.7604167,10.4493056 13.30625,10.6618056 13.7125,11.0854167 C14.11875,11.5090278 14.3222222,12.0597222 14.3222222,12.7375 C14.3222222,13.4152778 14.1208333,13.9493056 13.7194444,14.3423611 C13.3180556,14.7354167 12.7604167,14.9305556 12.0486111,14.9305556 L11.1180556,14.9305556 Z M11.1180556,13.7673611 L12.0770833,13.7673611 C12.3430556,13.7673611 12.5486111,13.6805556 12.6944444,13.50625 C12.8402778,13.3319444 12.9125,13.0791667 12.9125,12.7465278 C12.9125,12.4013889 12.8381944,12.1270833 12.6895833,11.9222222 C12.5409722,11.71875 12.3416667,11.6152778 12.0916667,11.6118056 L11.1180556,11.6118056 L11.1180556,13.7673611 Z M19.4979167,10.4166667 L19.4979167,15.1395833 C19.4916667,15.8576389 19.3097222,16.4076389 18.95,16.7895833 C18.5902778,17.1708333 18.0743056,17.3611111 17.4020833,17.3611111 C16.71875,17.3611111 16.1958333,17.1680556 15.8340278,16.7819444 C15.4729167,16.3958333 15.2930556,15.8375 15.2930556,15.10625 L15.2930556,10.4166667 L16.6666667,10.4166667 L16.6666667,15.1111111 C16.6666667,15.2777778 16.6666667,16.2027778 17.3611111,16.2027778 C18.0555556,16.2027778 18.0527778,15.5145833 18.0555556,15.1347222 L18.0555556,10.4166667 L19.4979167,10.4166667 Z M20.1388889,17.3611111 L20.1388889,10.4493056 L22.275,10.4493056 C22.9965278,10.4493056 23.5444444,10.6097222 23.9201389,10.93125 C24.2944444,11.2520833 24.4826389,11.7229167 24.4826389,12.3430556 C24.4826389,12.6944444 24.4048611,12.9965278 24.25,13.25 C24.0951389,13.5034722 23.8826389,13.6881944 23.6138889,13.8055556 C23.9243056,13.8944444 24.1631944,14.0722222 24.3305556,14.3402778 C24.4979167,14.6076389 24.5819444,14.9368056 24.5819444,15.3298611 C24.5819444,16.0006944 24.3972222,16.5069444 24.0284722,16.8493056 C23.6604167,17.1902778 23.1270833,17.3611111 22.4270833,17.3611111 L20.1388889,17.3611111 Z M21.5347222,13.3402778 L22.2611111,13.3402778 C22.8083333,13.3402778 23.0826389,13.0569444 23.0826389,12.4902778 C23.0826389,12.1770833 23.01875,11.9527778 22.8930556,11.8159722 C22.7673611,11.6791667 22.5604167,11.6118056 22.2756944,11.6118056 L21.5347222,11.6118056 L21.5347222,13.3402778 Z M21.5347222,14.35625 L21.5347222,16.2027778 L22.4270833,16.2027778 C22.6763889,16.2027778 22.8666667,16.1256944 22.9965278,15.9701389 C23.1263889,15.8145833 23.1909722,15.5951389 23.1909722,15.3104167 C23.1909722,14.6895833 22.9666667,14.3715278 22.5166667,14.35625 L21.5347222,14.35625 Z" id="Shape" fill="#A3280C">
				</path>
			</g>
		</g>
	</g>
</svg>
