<?xml version="1.0" encoding="UTF-8"?>
<svg width="25px" height="33px" viewBox="0 0 25 33" version="1.1" xmlns="http://www.w3.org/2000/svg" xmlns:xlink="http://www.w3.org/1999/xlink">
    <!-- Generator: Sketch 48.2 (47327) - http://www.bohemiancoding.com/sketch -->
    <title>icons8-powerpoint</title>
    <desc>Created with Sketch.</desc>
    <defs></defs>
    <g id="Newsfeed-[All]" stroke="none" stroke-width="1" fill="none" fill-rule="evenodd" transform="translate(-313.000000, -3262.000000)">
        <g id="iOS-Post-type-[All]" transform="translate(0.000000, 2716.000000)" fill-rule="nonzero">
            <g id="icons8-powerpoint" transform="translate(313.000000, 546.187500)">
                <polygon id="Shape" fill="#FF6D00" points="25 32.8125 0 32.8125 0 0 17.1875 0 25 7.8125"></polygon>
                <polygon id="Shape" fill="#FFF3E0" points="23.828125 8.59375 16.40625 8.59375 16.40625 1.171875"></polygon>
                <path d="M10.978125,21.6078125 L10.978125,25 L8.56796875,25 L8.56796875,15.0023437 L12.5570313,15.0023437 C13.321875,15.0023437 13.9984375,15.1429687 14.5859375,15.425 C15.175,15.7054688 15.6296875,16.1070313 15.953125,16.6257812 C16.275,17.1460937 16.4367188,17.7351562 16.4367188,18.3945312 C16.4367188,19.3695312 16.0875,20.1492187 15.3898438,20.7320312 C14.690625,21.3164062 13.7335938,21.6078125 12.515625,21.6078125 L10.978125,21.6078125 Z M10.978125,19.746875 L12.5570313,19.746875 C13.0242187,19.746875 13.3804687,19.6304687 13.6242188,19.396875 C13.8695313,19.1632813 13.9921875,18.8335937 13.9921875,18.4078125 C13.9921875,17.940625 13.8664062,17.5679687 13.6148438,17.2882812 C13.3632812,17.0085937 13.0195312,16.8671875 12.5851562,16.8625 L10.978125,16.8625 L10.978125,19.746875 Z" id="Shape" fill="#FFFFFF"></path>
            </g>
        </g>
    </g>
</svg>